<svg width="24" height="24" viewBox="0 0 24 24" fill="none" xmlns="http://www.w3.org/2000/svg">
  <path d="M21 14.9983C21 16.6183 19.6569 17.9382 18 17.9382C16.3431 17.9382 15 16.6183 15 14.9983C15 13.3783 16.3431 12.0583 18 12.0583C19.6569 12.0583 21 13.3783 21 14.9983Z" stroke="currentColor" stroke-width="1.5" stroke-linecap="round" stroke-linejoin="round"/>
  <path d="M9 10.0017C9 11.6217 7.65686 12.9417 6 12.9417C4.34315 12.9417 3 11.6217 3 10.0017C3 8.38168 4.34315 7.06171 6 7.06171C7.65686 7.06171 9 8.38168 9 10.0017Z" stroke="currentColor" stroke-width="1.5" stroke-linecap="round" stroke-linejoin="round"/>
  <path d="M14.1213 5.8787C15.2929 7.05026 15.2929 8.94974 14.1213 10.1213C12.9497 11.2929 11.0503 11.2929 9.87866 10.1213C8.70709 8.94974 8.70709 7.05026 9.87866 5.8787C11.0503 4.70713 12.9497 4.70713 14.1213 5.8787Z" stroke="currentColor" stroke-width="1.5" stroke-linecap="round" stroke-linejoin="round"/>
  <path d="M14.1213 19.1213C15.2929 17.9497 15.2929 16.0502 14.1213 14.8787C12.9497 13.7071 11.0503 13.7071 9.87866 14.8787C8.70709 16.0502 8.70709 17.9497 9.87866 19.1213C11.0503 20.2928 12.9497 20.2928 14.1213 19.1213Z" stroke="currentColor" stroke-width="1.5" stroke-linecap="round" stroke-linejoin="round"/>
</svg> 